<?xml version="1.0" encoding="iso-8859-1"?>
<!-- Generator: Adobe Illustrator 19.0.0, SVG Export Plug-In . SVG Version: 6.00 Build 0)  -->
<svg xmlns="http://www.w3.org/2000/svg" xmlns:xlink="http://www.w3.org/1999/xlink" version="1.1" id="Layer_1" x="0px" y="0px" viewBox="0 0 512 512" style="enable-background:new 0 0 512 512;" xml:space="preserve">
<circle style="fill:#00A6FF;" cx="255.996" cy="255.998" r="255.996"/>
<path style="fill:#006EF5;" d="M512,256.001c0-10.436-0.641-20.722-1.854-30.831L403.793,118.817  C366.967,79.161,314.386,54.34,255.999,54.34c-111.375,0-201.662,90.287-201.662,201.662c0,58.387,24.822,110.968,64.479,147.793  l106.285,106.285c8.613,1.054,17.358,1.682,26.213,1.861c1.28,0.023,2.56,0.045,3.844,0.048c0.348,0.002,0.695,0.007,1.044,0.008  C397.493,511.89,512,397.319,512,256.001z"/>
<circle style="fill:#FFFFFF;" cx="255.996" cy="255.998" r="201.662"/>
<path style="fill:#E1E1E3;" d="M255.999,54.34c-0.006,0-0.012,0-0.018,0v403.325c0.006,0,0.011,0,0.018,0  c111.375,0,201.662-90.287,201.662-201.662S367.376,54.34,255.999,54.34z"/>
<polygon style="fill:#00A6FF;" points="214.251,402.121 88.433,276.302 134.239,230.494 214.251,310.504 372.954,151.802   418.761,197.61 "/>
<polygon style="fill:#0088FF;" points="372.954,151.802 255.983,268.773 255.983,360.389 418.761,197.61 "/>
<g>
</g>
<g>
</g>
<g>
</g>
<g>
</g>
<g>
</g>
<g>
</g>
<g>
</g>
<g>
</g>
<g>
</g>
<g>
</g>
<g>
</g>
<g>
</g>
<g>
</g>
<g>
</g>
<g>
</g>
</svg>
