<svg height="512" viewBox="0 0 512 512" width="512" xmlns="http://www.w3.org/2000/svg" xmlns:xlink="http://www.w3.org/1999/xlink"><linearGradient id="a" gradientUnits="userSpaceOnUse" x1="18.273" x2="506.351" y1="493.727" y2="5.649" data-name="New Gradient Swatch 1"><stop offset="0" stop-color="#003f8a"/><stop offset=".518" stop-color="#00d7df"/><stop offset="1" stop-color="#006df0"/></linearGradient><linearGradient id="b" x1="-175.727" x2="312.351" xlink:href="#a" y1="299.727" y2="-188.351"/><linearGradient id="c" x1="-159.727" x2="328.351" xlink:href="#a" y1="315.727" y2="-172.351"/><linearGradient id="d" x1="-143.727" x2="344.351" xlink:href="#a" y1="331.727" y2="-156.351"/><linearGradient id="e" x1="-29.727" x2="458.351" xlink:href="#a" y1="445.727" y2="-42.351"/><linearGradient id="g" x1="58.273" x2="546.351" xlink:href="#a" y1="533.727" y2="45.649"/><linearGradient id="h" x1="40.273" x2="528.351" xlink:href="#a" y1="515.727" y2="27.649"/><linearGradient id="i" x1="82.273" x2="570.351" xlink:href="#a" y1="557.727" y2="69.649"/><linearGradient id="j" x1="70.273" x2="558.351" xlink:href="#a" y1="545.727" y2="57.649"/><linearGradient id="k" x1="108.273" x2="596.351" xlink:href="#a" y1="583.727" y2="95.649"/><linearGradient id="l" x1="94.273" x2="582.351" xlink:href="#a" y1="569.727" y2="81.649"/><g><path d="m476 48h-440a28.032 28.032 0 0 0 -28 28v360a28.032 28.032 0 0 0 28 28h440a28.032 28.032 0 0 0 28-28v-360a28.032 28.032 0 0 0 -28-28zm-440 16h440a12.013 12.013 0 0 1 12 12v20h-464v-20a12.013 12.013 0 0 1 12-12zm440 384h-440a12.013 12.013 0 0 1 -12-12v-324h464v324a12.013 12.013 0 0 1 -12 12z" fill="url(#a)"/><path d="m40 88h8a8 8 0 0 0 0-16h-8a8 8 0 0 0 0 16z" fill="url(#b)"/><path d="m72 88h8a8 8 0 0 0 0-16h-8a8 8 0 0 0 0 16z" fill="url(#c)"/><path d="m104 88h8a8 8 0 0 0 0-16h-8a8 8 0 0 0 0 16z" fill="url(#d)"/><path d="m136 200a80 80 0 1 0 80 80 80.091 80.091 0 0 0 -80-80zm0 144a64 64 0 1 1 64-64 64.072 64.072 0 0 1 -64 64z" fill="url(#e)"/><path d="m165.657 250.343a8 8 0 0 0 -11.314 0l-18.343 18.343-18.343-18.343a8 8 0 0 0 -11.314 11.314l18.343 18.343-18.343 18.343a8 8 0 0 0 11.314 11.314l18.343-18.343 18.343 18.343a8 8 0 1 0 11.314-11.314l-18.343-18.343 18.343-18.343a8 8 0 0 0 0-11.314z" fill="url(#e)"/><path d="m448 232h-192a8 8 0 0 0 0 16h192a8 8 0 0 0 0-16z" fill="url(#g)"/><path d="m256 272h72a8 8 0 0 0 0-16h-72a8 8 0 0 0 0 16z" fill="url(#h)"/><path d="m448 280h-192a8 8 0 0 0 0 16h192a8 8 0 0 0 0-16z" fill="url(#i)"/><path d="m352 304h-96a8 8 0 0 0 0 16h96a8 8 0 0 0 0-16z" fill="url(#j)"/><path d="m384 304h-8a8 8 0 0 0 0 16h8a8 8 0 0 0 0-16z" fill="url(#k)"/><path d="m448 256h-96a8 8 0 0 0 0 16h96a8 8 0 0 0 0-16z" fill="url(#l)"/></g></svg>